<?xml version="1.0" encoding="UTF-8" standalone="no"?>
<!DOCTYPE svg PUBLIC "-//W3C//DTD SVG 1.1//EN"
 "http://www.w3.org/Graphics/SVG/1.1/DTD/svg11.dtd">
<!-- Generated by graphviz version 2.40.1 (20161225.0304)
 -->
<!-- Title: %3 Pages: 1 -->
<svg width="2528pt" height="692pt"
 viewBox="0.00 0.00 2528.29 692.00" xmlns="http://www.w3.org/2000/svg" xmlns:xlink="http://www.w3.org/1999/xlink">
<g id="graph0" class="graph" transform="scale(1 1) rotate(0) translate(4 688)">
<title>%3</title>
<polygon fill="#ffffff" stroke="transparent" points="-4,4 -4,-688 2524.2877,-688 2524.2877,4 -4,4"/>
<!-- [root] aws_default_subnet.default_az1 -->
<g id="node1" class="node">
<title>[root] aws_default_subnet.default_az1</title>
<polygon fill="none" stroke="#000000" points="679.1983,-180 488.1983,-180 488.1983,-144 679.1983,-144 679.1983,-180"/>
<text text-anchor="middle" x="583.6983" y="-158.3" font-family="Times,serif" font-size="14.00" fill="#000000">aws_default_subnet.default_az1</text>
</g>
<!-- [root] provider.aws -->
<g id="node23" class="node">
<title>[root] provider.aws</title>
<polygon fill="none" stroke="#000000" points="478.6983,-108 398.7649,-90 478.6983,-72 558.6317,-90 478.6983,-108"/>
<text text-anchor="middle" x="478.6983" y="-86.3" font-family="Times,serif" font-size="14.00" fill="#000000">provider.aws</text>
</g>
<!-- [root] aws_default_subnet.default_az1&#45;&gt;[root] provider.aws -->
<g id="edge1" class="edge">
<title>[root] aws_default_subnet.default_az1&#45;&gt;[root] provider.aws</title>
<path fill="none" stroke="#000000" d="M557.2024,-143.8314C541.8243,-133.2864 522.464,-120.0107 506.8175,-109.2817"/>
<polygon fill="#000000" stroke="#000000" points="508.7827,-106.3855 498.556,-103.6167 504.8239,-112.1586 508.7827,-106.3855"/>
</g>
<!-- [root] aws_default_subnet.default_az2 -->
<g id="node2" class="node">
<title>[root] aws_default_subnet.default_az2</title>
<polygon fill="none" stroke="#000000" points="261.1983,-180 70.1983,-180 70.1983,-144 261.1983,-144 261.1983,-180"/>
<text text-anchor="middle" x="165.6983" y="-158.3" font-family="Times,serif" font-size="14.00" fill="#000000">aws_default_subnet.default_az2</text>
</g>
<!-- [root] aws_default_subnet.default_az2&#45;&gt;[root] provider.aws -->
<g id="edge2" class="edge">
<title>[root] aws_default_subnet.default_az2&#45;&gt;[root] provider.aws</title>
<path fill="none" stroke="#000000" d="M244.2774,-143.9243C302.2175,-130.5962 379.2883,-112.8675 428.9528,-101.443"/>
<polygon fill="#000000" stroke="#000000" points="429.8512,-104.8279 438.8121,-99.1751 428.2819,-98.006 429.8512,-104.8279"/>
</g>
<!-- [root] aws_default_subnet.default_az3 -->
<g id="node3" class="node">
<title>[root] aws_default_subnet.default_az3</title>
<polygon fill="none" stroke="#000000" points="470.1983,-180 279.1983,-180 279.1983,-144 470.1983,-144 470.1983,-180"/>
<text text-anchor="middle" x="374.6983" y="-158.3" font-family="Times,serif" font-size="14.00" fill="#000000">aws_default_subnet.default_az3</text>
</g>
<!-- [root] aws_default_subnet.default_az3&#45;&gt;[root] provider.aws -->
<g id="edge3" class="edge">
<title>[root] aws_default_subnet.default_az3&#45;&gt;[root] provider.aws</title>
<path fill="none" stroke="#000000" d="M400.9419,-143.8314C416.0324,-133.3841 434.9947,-120.2564 450.4155,-109.5804"/>
<polygon fill="#000000" stroke="#000000" points="452.8,-112.1865 459.0297,-103.6167 448.8155,-106.4312 452.8,-112.1865"/>
</g>
<!-- [root] aws_default_vpc.default -->
<g id="node4" class="node">
<title>[root] aws_default_vpc.default</title>
<polygon fill="none" stroke="#000000" points="846.1983,-180 697.1983,-180 697.1983,-144 846.1983,-144 846.1983,-180"/>
<text text-anchor="middle" x="771.6983" y="-158.3" font-family="Times,serif" font-size="14.00" fill="#000000">aws_default_vpc.default</text>
</g>
<!-- [root] aws_default_vpc.default&#45;&gt;[root] provider.aws -->
<g id="edge4" class="edge">
<title>[root] aws_default_vpc.default&#45;&gt;[root] provider.aws</title>
<path fill="none" stroke="#000000" d="M698.1402,-143.9243C644.6026,-130.7683 573.6162,-113.3245 527.0786,-101.8887"/>
<polygon fill="#000000" stroke="#000000" points="527.7922,-98.46 517.2459,-99.4724 526.1217,-105.2578 527.7922,-98.46"/>
</g>
<!-- [root] aws_key_pair.mykey -->
<g id="node5" class="node">
<title>[root] aws_key_pair.mykey</title>
<polygon fill="none" stroke="#000000" points="1452.1983,-252 1319.1983,-252 1319.1983,-216 1452.1983,-216 1452.1983,-252"/>
<text text-anchor="middle" x="1385.6983" y="-230.3" font-family="Times,serif" font-size="14.00" fill="#000000">aws_key_pair.mykey</text>
</g>
<!-- [root] aws_key_pair.mykey&#45;&gt;[root] provider.aws -->
<g id="edge5" class="edge">
<title>[root] aws_key_pair.mykey&#45;&gt;[root] provider.aws</title>
<path fill="none" stroke="#000000" d="M1387.6874,-215.9892C1388.8689,-195.2037 1387.1346,-161.6274 1366.6983,-144 1336.4204,-117.8836 773.9307,-98.681 560.1822,-92.2988"/>
<polygon fill="#000000" stroke="#000000" points="560.0644,-88.7939 549.9649,-91.9956 559.8567,-95.7908 560.0644,-88.7939"/>
</g>
<!-- [root] var.PATH_TO_PUBLIC_KEY -->
<g id="node26" class="node">
<title>[root] var.PATH_TO_PUBLIC_KEY</title>
<polygon fill="none" stroke="#000000" points="1352.1983,-180 1171.1983,-180 1171.1983,-144 1358.1983,-144 1358.1983,-174 1352.1983,-180"/>
<polyline fill="none" stroke="#000000" points="1352.1983,-180 1352.1983,-174 "/>
<polyline fill="none" stroke="#000000" points="1358.1983,-174 1352.1983,-174 "/>
<text text-anchor="middle" x="1264.6983" y="-158.3" font-family="Times,serif" font-size="14.00" fill="#000000">var.PATH_TO_PUBLIC_KEY</text>
</g>
<!-- [root] aws_key_pair.mykey&#45;&gt;[root] var.PATH_TO_PUBLIC_KEY -->
<g id="edge6" class="edge">
<title>[root] aws_key_pair.mykey&#45;&gt;[root] var.PATH_TO_PUBLIC_KEY</title>
<path fill="none" stroke="#000000" d="M1355.1649,-215.8314C1339.6882,-206.6221 1320.7114,-195.3301 1304.142,-185.4706"/>
<polygon fill="#000000" stroke="#000000" points="1305.6054,-182.2687 1295.2219,-180.1628 1302.0259,-188.2843 1305.6054,-182.2687"/>
</g>
<!-- [root] module.consul.aws_instance.server -->
<g id="node6" class="node">
<title>[root] module.consul.aws_instance.server</title>
<polygon fill="none" stroke="#000000" points="1197.1983,-396 988.1983,-396 988.1983,-360 1197.1983,-360 1197.1983,-396"/>
<text text-anchor="middle" x="1092.6983" y="-374.3" font-family="Times,serif" font-size="14.00" fill="#000000">module.consul.aws_instance.server</text>
</g>
<!-- [root] module.consul.aws_security_group.consul -->
<g id="node7" class="node">
<title>[root] module.consul.aws_security_group.consul</title>
<polygon fill="none" stroke="#000000" points="707.6983,-324 459.6983,-324 459.6983,-288 707.6983,-288 707.6983,-324"/>
<text text-anchor="middle" x="583.6983" y="-302.3" font-family="Times,serif" font-size="14.00" fill="#000000">module.consul.aws_security_group.consul</text>
</g>
<!-- [root] module.consul.aws_instance.server&#45;&gt;[root] module.consul.aws_security_group.consul -->
<g id="edge8" class="edge">
<title>[root] module.consul.aws_instance.server&#45;&gt;[root] module.consul.aws_security_group.consul</title>
<path fill="none" stroke="#000000" d="M988.1585,-363.2124C909.9389,-352.148 802.3418,-336.928 717.7879,-324.9675"/>
<polygon fill="#000000" stroke="#000000" points="718.2477,-321.4978 707.856,-323.5626 717.2672,-328.4288 718.2477,-321.4978"/>
</g>
<!-- [root] module.consul.var.ami -->
<g id="node9" class="node">
<title>[root] module.consul.var.ami</title>
<polygon fill="none" stroke="#000000" points="183.1983,-324 46.1983,-324 46.1983,-288 189.1983,-288 189.1983,-318 183.1983,-324"/>
<polyline fill="none" stroke="#000000" points="183.1983,-324 183.1983,-318 "/>
<polyline fill="none" stroke="#000000" points="189.1983,-318 183.1983,-318 "/>
<text text-anchor="middle" x="117.6983" y="-302.3" font-family="Times,serif" font-size="14.00" fill="#000000">module.consul.var.ami</text>
</g>
<!-- [root] module.consul.aws_instance.server&#45;&gt;[root] module.consul.var.ami -->
<g id="edge9" class="edge">
<title>[root] module.consul.aws_instance.server&#45;&gt;[root] module.consul.var.ami</title>
<path fill="none" stroke="#000000" d="M987.8499,-373.7554C789.7247,-365.3965 366.0904,-345.8235 199.6885,-323.9688"/>
<polygon fill="#000000" stroke="#000000" points="199.9599,-320.4735 189.5792,-322.5931 199.0159,-327.4096 199.9599,-320.4735"/>
</g>
<!-- [root] module.consul.var.instance_type -->
<g id="node10" class="node">
<title>[root] module.consul.var.instance_type</title>
<polygon fill="none" stroke="#000000" points="397.6983,-324 207.6983,-324 207.6983,-288 403.6983,-288 403.6983,-318 397.6983,-324"/>
<polyline fill="none" stroke="#000000" points="397.6983,-324 397.6983,-318 "/>
<polyline fill="none" stroke="#000000" points="403.6983,-318 397.6983,-318 "/>
<text text-anchor="middle" x="305.6983" y="-302.3" font-family="Times,serif" font-size="14.00" fill="#000000">module.consul.var.instance_type</text>
</g>
<!-- [root] module.consul.aws_instance.server&#45;&gt;[root] module.consul.var.instance_type -->
<g id="edge10" class="edge">
<title>[root] module.consul.aws_instance.server&#45;&gt;[root] module.consul.var.instance_type</title>
<path fill="none" stroke="#000000" d="M988.0819,-372.2176C855.1822,-364.2782 618.8982,-348.177 417.6983,-324 416.574,-323.8649 415.4437,-323.7268 414.3082,-323.5859"/>
<polygon fill="#000000" stroke="#000000" points="414.339,-320.0607 403.9722,-322.2472 413.4398,-327.0027 414.339,-320.0607"/>
</g>
<!-- [root] module.consul.var.key_name -->
<g id="node11" class="node">
<title>[root] module.consul.var.key_name</title>
<polygon fill="none" stroke="#000000" points="1712.6983,-324 1540.6983,-324 1540.6983,-288 1718.6983,-288 1718.6983,-318 1712.6983,-324"/>
<polyline fill="none" stroke="#000000" points="1712.6983,-324 1712.6983,-318 "/>
<polyline fill="none" stroke="#000000" points="1718.6983,-318 1712.6983,-318 "/>
<text text-anchor="middle" x="1629.6983" y="-302.3" font-family="Times,serif" font-size="14.00" fill="#000000">module.consul.var.key_name</text>
</g>
<!-- [root] module.consul.aws_instance.server&#45;&gt;[root] module.consul.var.key_name -->
<g id="edge11" class="edge">
<title>[root] module.consul.aws_instance.server&#45;&gt;[root] module.consul.var.key_name</title>
<path fill="none" stroke="#000000" d="M1197.6046,-366.8641C1284.2565,-357.2546 1410.7013,-342.2887 1530.4553,-324.1456"/>
<polygon fill="#000000" stroke="#000000" points="1531.1801,-327.5756 1540.5381,-322.608 1530.1247,-320.6556 1531.1801,-327.5756"/>
</g>
<!-- [root] module.consul.var.key_path -->
<g id="node12" class="node">
<title>[root] module.consul.var.key_path</title>
<polygon fill="none" stroke="#000000" points="891.1983,-324 726.1983,-324 726.1983,-288 897.1983,-288 897.1983,-318 891.1983,-324"/>
<polyline fill="none" stroke="#000000" points="891.1983,-324 891.1983,-318 "/>
<polyline fill="none" stroke="#000000" points="897.1983,-318 891.1983,-318 "/>
<text text-anchor="middle" x="811.6983" y="-302.3" font-family="Times,serif" font-size="14.00" fill="#000000">module.consul.var.key_path</text>
</g>
<!-- [root] module.consul.aws_instance.server&#45;&gt;[root] module.consul.var.key_path -->
<g id="edge12" class="edge">
<title>[root] module.consul.aws_instance.server&#45;&gt;[root] module.consul.var.key_path</title>
<path fill="none" stroke="#000000" d="M1022.1528,-359.9243C982.5694,-349.7819 933.0402,-337.0912 891.9762,-326.5694"/>
<polygon fill="#000000" stroke="#000000" points="892.8286,-323.1748 882.2728,-324.0831 891.0911,-329.9558 892.8286,-323.1748"/>
</g>
<!-- [root] module.consul.var.region -->
<g id="node14" class="node">
<title>[root] module.consul.var.region</title>
<polygon fill="none" stroke="#000000" points="296.6983,-108 146.6983,-108 146.6983,-72 302.6983,-72 302.6983,-102 296.6983,-108"/>
<polyline fill="none" stroke="#000000" points="296.6983,-108 296.6983,-102 "/>
<polyline fill="none" stroke="#000000" points="302.6983,-102 296.6983,-102 "/>
<text text-anchor="middle" x="224.6983" y="-86.3" font-family="Times,serif" font-size="14.00" fill="#000000">module.consul.var.region</text>
</g>
<!-- [root] module.consul.aws_instance.server&#45;&gt;[root] module.consul.var.region -->
<g id="edge13" class="edge">
<title>[root] module.consul.aws_instance.server&#45;&gt;[root] module.consul.var.region</title>
<path fill="none" stroke="#000000" d="M987.9996,-376.4925C727.5715,-372.232 69.1203,-358.1223 36.6983,-324 4.4223,-290.0313 -35.5563,-256.2283 60.6983,-144 71.4885,-131.4191 103.5586,-119.6311 136.5106,-110.2985"/>
<polygon fill="#000000" stroke="#000000" points="137.564,-113.6388 146.2751,-107.6081 135.7046,-106.8902 137.564,-113.6388"/>
</g>
<!-- [root] module.consul.var.servers -->
<g id="node15" class="node">
<title>[root] module.consul.var.servers</title>
<polygon fill="none" stroke="#000000" points="1069.6983,-324 915.6983,-324 915.6983,-288 1075.6983,-288 1075.6983,-318 1069.6983,-324"/>
<polyline fill="none" stroke="#000000" points="1069.6983,-324 1069.6983,-318 "/>
<polyline fill="none" stroke="#000000" points="1075.6983,-318 1069.6983,-318 "/>
<text text-anchor="middle" x="995.6983" y="-302.3" font-family="Times,serif" font-size="14.00" fill="#000000">module.consul.var.servers</text>
</g>
<!-- [root] module.consul.aws_instance.server&#45;&gt;[root] module.consul.var.servers -->
<g id="edge14" class="edge">
<title>[root] module.consul.aws_instance.server&#45;&gt;[root] module.consul.var.servers</title>
<path fill="none" stroke="#000000" d="M1068.2211,-359.8314C1056.1588,-350.8779 1041.4443,-339.9558 1028.4297,-330.2955"/>
<polygon fill="#000000" stroke="#000000" points="1030.2835,-327.3127 1020.1677,-324.1628 1026.1113,-332.9335 1030.2835,-327.3127"/>
</g>
<!-- [root] module.consul.var.service_conf -->
<g id="node16" class="node">
<title>[root] module.consul.var.service_conf</title>
<polygon fill="none" stroke="#000000" points="1279.1983,-324 1094.1983,-324 1094.1983,-288 1285.1983,-288 1285.1983,-318 1279.1983,-324"/>
<polyline fill="none" stroke="#000000" points="1279.1983,-324 1279.1983,-318 "/>
<polyline fill="none" stroke="#000000" points="1285.1983,-318 1279.1983,-318 "/>
<text text-anchor="middle" x="1189.6983" y="-302.3" font-family="Times,serif" font-size="14.00" fill="#000000">module.consul.var.service_conf</text>
</g>
<!-- [root] module.consul.aws_instance.server&#45;&gt;[root] module.consul.var.service_conf -->
<g id="edge15" class="edge">
<title>[root] module.consul.aws_instance.server&#45;&gt;[root] module.consul.var.service_conf</title>
<path fill="none" stroke="#000000" d="M1117.1755,-359.8314C1129.2378,-350.8779 1143.9523,-339.9558 1156.9669,-330.2955"/>
<polygon fill="#000000" stroke="#000000" points="1159.2853,-332.9335 1165.2289,-324.1628 1155.1131,-327.3127 1159.2853,-332.9335"/>
</g>
<!-- [root] module.consul.var.service_conf_dest -->
<g id="node17" class="node">
<title>[root] module.consul.var.service_conf_dest</title>
<polygon fill="none" stroke="#000000" points="1516.1983,-324 1303.1983,-324 1303.1983,-288 1522.1983,-288 1522.1983,-318 1516.1983,-324"/>
<polyline fill="none" stroke="#000000" points="1516.1983,-324 1516.1983,-318 "/>
<polyline fill="none" stroke="#000000" points="1522.1983,-318 1516.1983,-318 "/>
<text text-anchor="middle" x="1412.6983" y="-302.3" font-family="Times,serif" font-size="14.00" fill="#000000">module.consul.var.service_conf_dest</text>
</g>
<!-- [root] module.consul.aws_instance.server&#45;&gt;[root] module.consul.var.service_conf_dest -->
<g id="edge16" class="edge">
<title>[root] module.consul.aws_instance.server&#45;&gt;[root] module.consul.var.service_conf_dest</title>
<path fill="none" stroke="#000000" d="M1173.0348,-359.9243C1218.5788,-349.6769 1275.6848,-336.828 1322.7283,-326.2432"/>
<polygon fill="#000000" stroke="#000000" points="1323.6186,-329.6305 1332.6064,-324.0207 1322.082,-322.8012 1323.6186,-329.6305"/>
</g>
<!-- [root] module.consul.var.subnets -->
<g id="node18" class="node">
<title>[root] module.consul.var.subnets</title>
<polygon fill="none" stroke="#000000" points="455.6983,-252 299.6983,-252 299.6983,-216 461.6983,-216 461.6983,-246 455.6983,-252"/>
<polyline fill="none" stroke="#000000" points="455.6983,-252 455.6983,-246 "/>
<polyline fill="none" stroke="#000000" points="461.6983,-246 455.6983,-246 "/>
<text text-anchor="middle" x="380.6983" y="-230.3" font-family="Times,serif" font-size="14.00" fill="#000000">module.consul.var.subnets</text>
</g>
<!-- [root] module.consul.aws_instance.server&#45;&gt;[root] module.consul.var.subnets -->
<g id="edge17" class="edge">
<title>[root] module.consul.aws_instance.server&#45;&gt;[root] module.consul.var.subnets</title>
<path fill="none" stroke="#000000" d="M987.94,-373.7779C818.0396,-366.2492 496.6669,-348.9241 450.6983,-324 437.0426,-316.5959 413.8201,-284.4421 397.8941,-260.6688"/>
<polygon fill="#000000" stroke="#000000" points="400.6197,-258.4453 392.1827,-252.0369 394.7819,-262.308 400.6197,-258.4453"/>
</g>
<!-- [root] module.consul.var.tagName -->
<g id="node19" class="node">
<title>[root] module.consul.var.tagName</title>
<polygon fill="none" stroke="#000000" points="1902.1983,-324 1737.1983,-324 1737.1983,-288 1908.1983,-288 1908.1983,-318 1902.1983,-324"/>
<polyline fill="none" stroke="#000000" points="1902.1983,-324 1902.1983,-318 "/>
<polyline fill="none" stroke="#000000" points="1908.1983,-318 1902.1983,-318 "/>
<text text-anchor="middle" x="1822.6983" y="-302.3" font-family="Times,serif" font-size="14.00" fill="#000000">module.consul.var.tagName</text>
</g>
<!-- [root] module.consul.aws_instance.server&#45;&gt;[root] module.consul.var.tagName -->
<g id="edge18" class="edge">
<title>[root] module.consul.aws_instance.server&#45;&gt;[root] module.consul.var.tagName</title>
<path fill="none" stroke="#000000" d="M1197.2808,-372.399C1321.281,-365.0125 1534.3224,-349.9785 1727.0269,-324.0086"/>
<polygon fill="#000000" stroke="#000000" points="1727.6225,-327.4599 1737.0595,-322.6441 1726.679,-320.5238 1727.6225,-327.4599"/>
</g>
<!-- [root] module.consul.var.user -->
<g id="node20" class="node">
<title>[root] module.consul.var.user</title>
<polygon fill="none" stroke="#000000" points="2064.6983,-324 1926.6983,-324 1926.6983,-288 2070.6983,-288 2070.6983,-318 2064.6983,-324"/>
<polyline fill="none" stroke="#000000" points="2064.6983,-324 2064.6983,-318 "/>
<polyline fill="none" stroke="#000000" points="2070.6983,-318 2064.6983,-318 "/>
<text text-anchor="middle" x="1998.6983" y="-302.3" font-family="Times,serif" font-size="14.00" fill="#000000">module.consul.var.user</text>
</g>
<!-- [root] module.consul.aws_instance.server&#45;&gt;[root] module.consul.var.user -->
<g id="edge19" class="edge">
<title>[root] module.consul.aws_instance.server&#45;&gt;[root] module.consul.var.user</title>
<path fill="none" stroke="#000000" d="M1197.416,-376.2796C1352.5972,-372.5875 1652.7706,-361.0691 1916.2312,-324.0872"/>
<polygon fill="#000000" stroke="#000000" points="1916.9666,-327.518 1926.3758,-322.6479 1915.9833,-320.5874 1916.9666,-327.518"/>
</g>
<!-- [root] provisioner.file -->
<g id="node28" class="node">
<title>[root] provisioner.file</title>
<ellipse fill="none" stroke="#000000" cx="2175.6983" cy="-306" rx="87.1846" ry="18"/>
<text text-anchor="middle" x="2175.6983" y="-302.3" font-family="Times,serif" font-size="14.00" fill="#000000">[root] provisioner.file</text>
</g>
<!-- [root] module.consul.aws_instance.server&#45;&gt;[root] provisioner.file -->
<g id="edge20" class="edge">
<title>[root] module.consul.aws_instance.server&#45;&gt;[root] provisioner.file</title>
<path fill="none" stroke="#000000" d="M1197.542,-376.7568C1378.2556,-373.6118 1759.8168,-362.5719 2079.6983,-324 2087.6575,-323.0403 2095.9511,-321.8211 2104.1841,-320.4711"/>
<polygon fill="#000000" stroke="#000000" points="2104.9007,-323.8995 2114.17,-318.7681 2103.7239,-316.9991 2104.9007,-323.8995"/>
</g>
<!-- [root] provisioner.remote&#45;exec -->
<g id="node29" class="node">
<title>[root] provisioner.remote&#45;exec</title>
<ellipse fill="none" stroke="#000000" cx="2400.6983" cy="-306" rx="119.6788" ry="18"/>
<text text-anchor="middle" x="2400.6983" y="-302.3" font-family="Times,serif" font-size="14.00" fill="#000000">[root] provisioner.remote&#45;exec</text>
</g>
<!-- [root] module.consul.aws_instance.server&#45;&gt;[root] provisioner.remote&#45;exec -->
<g id="edge21" class="edge">
<title>[root] module.consul.aws_instance.server&#45;&gt;[root] provisioner.remote&#45;exec</title>
<path fill="none" stroke="#000000" d="M1197.4116,-376.4652C1403.5059,-372.7238 1876.1319,-360.5768 2271.6983,-324 2283.0182,-322.9533 2294.8671,-321.6235 2306.6005,-320.1622"/>
<polygon fill="#000000" stroke="#000000" points="2307.3913,-323.5896 2316.8658,-318.848 2306.5023,-316.6463 2307.3913,-323.5896"/>
</g>
<!-- [root] module.consul.var.platform -->
<g id="node13" class="node">
<title>[root] module.consul.var.platform</title>
<polygon fill="none" stroke="#000000" points="655.1983,-252 492.1983,-252 492.1983,-216 661.1983,-216 661.1983,-246 655.1983,-252"/>
<polyline fill="none" stroke="#000000" points="655.1983,-252 655.1983,-246 "/>
<polyline fill="none" stroke="#000000" points="661.1983,-246 655.1983,-246 "/>
<text text-anchor="middle" x="576.6983" y="-230.3" font-family="Times,serif" font-size="14.00" fill="#000000">module.consul.var.platform</text>
</g>
<!-- [root] module.consul.aws_security_group.consul&#45;&gt;[root] module.consul.var.platform -->
<g id="edge22" class="edge">
<title>[root] module.consul.aws_security_group.consul&#45;&gt;[root] module.consul.var.platform</title>
<path fill="none" stroke="#000000" d="M581.9319,-287.8314C581.1833,-280.131 580.293,-270.9743 579.461,-262.4166"/>
<polygon fill="#000000" stroke="#000000" points="582.9398,-262.0276 578.4885,-252.4133 575.9727,-262.7051 582.9398,-262.0276"/>
</g>
<!-- [root] module.consul.var.vpc_id -->
<g id="node21" class="node">
<title>[root] module.consul.var.vpc_id</title>
<polygon fill="none" stroke="#000000" points="830.6983,-252 678.6983,-252 678.6983,-216 836.6983,-216 836.6983,-246 830.6983,-252"/>
<polyline fill="none" stroke="#000000" points="830.6983,-252 830.6983,-246 "/>
<polyline fill="none" stroke="#000000" points="836.6983,-246 830.6983,-246 "/>
<text text-anchor="middle" x="757.6983" y="-230.3" font-family="Times,serif" font-size="14.00" fill="#000000">module.consul.var.vpc_id</text>
</g>
<!-- [root] module.consul.aws_security_group.consul&#45;&gt;[root] module.consul.var.vpc_id -->
<g id="edge23" class="edge">
<title>[root] module.consul.aws_security_group.consul&#45;&gt;[root] module.consul.var.vpc_id</title>
<path fill="none" stroke="#000000" d="M627.6058,-287.8314C650.9807,-278.159 679.908,-266.1891 704.5451,-255.9944"/>
<polygon fill="#000000" stroke="#000000" points="706.2046,-259.0956 714.1065,-252.038 703.5281,-252.6275 706.2046,-259.0956"/>
</g>
<!-- [root] module.consul.output.server_address -->
<g id="node8" class="node">
<title>[root] module.consul.output.server_address</title>
<polygon fill="none" stroke="#000000" points="967.1983,-468 754.1983,-468 754.1983,-432 973.1983,-432 973.1983,-462 967.1983,-468"/>
<polyline fill="none" stroke="#000000" points="967.1983,-468 967.1983,-462 "/>
<polyline fill="none" stroke="#000000" points="973.1983,-462 967.1983,-462 "/>
<text text-anchor="middle" x="863.6983" y="-446.3" font-family="Times,serif" font-size="14.00" fill="#000000">module.consul.output.server_address</text>
</g>
<!-- [root] module.consul.output.server_address&#45;&gt;[root] module.consul.aws_instance.server -->
<g id="edge24" class="edge">
<title>[root] module.consul.output.server_address&#45;&gt;[root] module.consul.aws_instance.server</title>
<path fill="none" stroke="#000000" d="M921.1891,-431.9243C952.9031,-421.9531 992.451,-409.5188 1025.5758,-399.104"/>
<polygon fill="#000000" stroke="#000000" points="1026.6941,-402.4214 1035.1839,-396.0831 1024.5945,-395.7437 1026.6941,-402.4214"/>
</g>
<!-- [root] module.consul.var.key_name&#45;&gt;[root] aws_key_pair.mykey -->
<g id="edge25" class="edge">
<title>[root] module.consul.var.key_name&#45;&gt;[root] aws_key_pair.mykey</title>
<path fill="none" stroke="#000000" d="M1568.4417,-287.9243C1534.5054,-277.9103 1492.1502,-265.412 1456.7634,-254.97"/>
<polygon fill="#000000" stroke="#000000" points="1457.5618,-251.5565 1446.9801,-252.0831 1455.5806,-258.2703 1457.5618,-251.5565"/>
</g>
<!-- [root] var.PATH_TO_PRIVATE_KEY -->
<g id="node25" class="node">
<title>[root] var.PATH_TO_PRIVATE_KEY</title>
<polygon fill="none" stroke="#000000" points="1044.6983,-252 854.6983,-252 854.6983,-216 1050.6983,-216 1050.6983,-246 1044.6983,-252"/>
<polyline fill="none" stroke="#000000" points="1044.6983,-252 1044.6983,-246 "/>
<polyline fill="none" stroke="#000000" points="1050.6983,-246 1044.6983,-246 "/>
<text text-anchor="middle" x="952.6983" y="-230.3" font-family="Times,serif" font-size="14.00" fill="#000000">var.PATH_TO_PRIVATE_KEY</text>
</g>
<!-- [root] module.consul.var.key_path&#45;&gt;[root] var.PATH_TO_PRIVATE_KEY -->
<g id="edge26" class="edge">
<title>[root] module.consul.var.key_path&#45;&gt;[root] var.PATH_TO_PRIVATE_KEY</title>
<path fill="none" stroke="#000000" d="M847.2786,-287.8314C865.7308,-278.4089 888.4528,-266.8062 908.0713,-256.7883"/>
<polygon fill="#000000" stroke="#000000" points="909.8151,-259.8278 917.1294,-252.1628 906.6316,-253.5935 909.8151,-259.8278"/>
</g>
<!-- [root] var.AWS_REGION -->
<g id="node24" class="node">
<title>[root] var.AWS_REGION</title>
<polygon fill="none" stroke="#000000" points="369.6983,-36 249.6983,-36 249.6983,0 375.6983,0 375.6983,-30 369.6983,-36"/>
<polyline fill="none" stroke="#000000" points="369.6983,-36 369.6983,-30 "/>
<polyline fill="none" stroke="#000000" points="375.6983,-30 369.6983,-30 "/>
<text text-anchor="middle" x="312.6983" y="-14.3" font-family="Times,serif" font-size="14.00" fill="#000000">var.AWS_REGION</text>
</g>
<!-- [root] module.consul.var.region&#45;&gt;[root] var.AWS_REGION -->
<g id="edge27" class="edge">
<title>[root] module.consul.var.region&#45;&gt;[root] var.AWS_REGION</title>
<path fill="none" stroke="#000000" d="M246.9044,-71.8314C257.7433,-62.9632 270.9427,-52.1637 282.6661,-42.5718"/>
<polygon fill="#000000" stroke="#000000" points="284.976,-45.2041 290.4993,-36.1628 280.5433,-39.7864 284.976,-45.2041"/>
</g>
<!-- [root] module.consul.var.subnets&#45;&gt;[root] aws_default_subnet.default_az1 -->
<g id="edge28" class="edge">
<title>[root] module.consul.var.subnets&#45;&gt;[root] aws_default_subnet.default_az1</title>
<path fill="none" stroke="#000000" d="M431.6617,-215.9243C459.413,-206.0815 493.9311,-193.8386 523.0597,-183.5073"/>
<polygon fill="#000000" stroke="#000000" points="524.4591,-186.7246 532.7139,-180.0831 522.1191,-180.1273 524.4591,-186.7246"/>
</g>
<!-- [root] module.consul.var.subnets&#45;&gt;[root] aws_default_subnet.default_az2 -->
<g id="edge29" class="edge">
<title>[root] module.consul.var.subnets&#45;&gt;[root] aws_default_subnet.default_az2</title>
<path fill="none" stroke="#000000" d="M326.7222,-215.9243C297.2027,-206.0387 260.4539,-193.7321 229.5194,-183.3726"/>
<polygon fill="#000000" stroke="#000000" points="230.2904,-179.9399 219.6966,-180.0831 228.0675,-186.5776 230.2904,-179.9399"/>
</g>
<!-- [root] module.consul.var.subnets&#45;&gt;[root] aws_default_subnet.default_az3 -->
<g id="edge30" class="edge">
<title>[root] module.consul.var.subnets&#45;&gt;[root] aws_default_subnet.default_az3</title>
<path fill="none" stroke="#000000" d="M379.1842,-215.8314C378.5425,-208.131 377.7795,-198.9743 377.0664,-190.4166"/>
<polygon fill="#000000" stroke="#000000" points="380.5512,-190.088 376.2327,-180.4133 373.5754,-190.6694 380.5512,-190.088"/>
</g>
<!-- [root] module.consul.var.vpc_id&#45;&gt;[root] aws_default_vpc.default -->
<g id="edge31" class="edge">
<title>[root] module.consul.var.vpc_id&#45;&gt;[root] aws_default_vpc.default</title>
<path fill="none" stroke="#000000" d="M761.2311,-215.8314C762.7284,-208.131 764.5088,-198.9743 766.1728,-190.4166"/>
<polygon fill="#000000" stroke="#000000" points="769.6448,-190.8975 768.1179,-180.4133 762.7735,-189.5614 769.6448,-190.8975"/>
</g>
<!-- [root] output.consul&#45;output -->
<g id="node22" class="node">
<title>[root] output.consul&#45;output</title>
<polygon fill="none" stroke="#000000" points="897.1983,-540 774.1983,-540 774.1983,-504 903.1983,-504 903.1983,-534 897.1983,-540"/>
<polyline fill="none" stroke="#000000" points="897.1983,-540 897.1983,-534 "/>
<polyline fill="none" stroke="#000000" points="903.1983,-534 897.1983,-534 "/>
<text text-anchor="middle" x="838.6983" y="-518.3" font-family="Times,serif" font-size="14.00" fill="#000000">output.consul&#45;output</text>
</g>
<!-- [root] output.consul&#45;output&#45;&gt;[root] module.consul.output.server_address -->
<g id="edge32" class="edge">
<title>[root] output.consul&#45;output&#45;&gt;[root] module.consul.output.server_address</title>
<path fill="none" stroke="#000000" d="M845.0069,-503.8314C847.71,-496.0463 850.9299,-486.7729 853.9293,-478.1347"/>
<polygon fill="#000000" stroke="#000000" points="857.331,-479.0081 857.3048,-468.4133 850.7183,-476.7119 857.331,-479.0081"/>
</g>
<!-- [root] provider.aws&#45;&gt;[root] var.AWS_REGION -->
<g id="edge34" class="edge">
<title>[root] provider.aws&#45;&gt;[root] var.AWS_REGION</title>
<path fill="none" stroke="#000000" d="M451.2868,-78.1107C427.6247,-67.8476 392.8072,-52.746 363.9909,-40.2474"/>
<polygon fill="#000000" stroke="#000000" points="365.0402,-36.8875 354.4732,-36.1193 362.2547,-43.3095 365.0402,-36.8875"/>
</g>
<!-- [root] meta.count&#45;boundary (EachMode fixup) -->
<g id="node27" class="node">
<title>[root] meta.count&#45;boundary (EachMode fixup)</title>
<ellipse fill="none" stroke="#000000" cx="858.6983" cy="-594" rx="176.5689" ry="18"/>
<text text-anchor="middle" x="858.6983" y="-590.3" font-family="Times,serif" font-size="14.00" fill="#000000">[root] meta.count&#45;boundary (EachMode fixup)</text>
</g>
<!-- [root] meta.count&#45;boundary (EachMode fixup)&#45;&gt;[root] output.consul&#45;output -->
<g id="edge7" class="edge">
<title>[root] meta.count&#45;boundary (EachMode fixup)&#45;&gt;[root] output.consul&#45;output</title>
<path fill="none" stroke="#000000" d="M853.6515,-575.8314C851.4889,-568.0463 848.913,-558.7729 846.5135,-550.1347"/>
<polygon fill="#000000" stroke="#000000" points="849.8619,-549.1117 843.8131,-540.4133 843.1173,-550.9852 849.8619,-549.1117"/>
</g>
<!-- [root] provider.aws (close) -->
<g id="node30" class="node">
<title>[root] provider.aws (close)</title>
<ellipse fill="none" stroke="#000000" cx="1026.6983" cy="-522" rx="105.0817" ry="18"/>
<text text-anchor="middle" x="1026.6983" y="-518.3" font-family="Times,serif" font-size="14.00" fill="#000000">[root] provider.aws (close)</text>
</g>
<!-- [root] provider.aws (close)&#45;&gt;[root] module.consul.aws_instance.server -->
<g id="edge33" class="edge">
<title>[root] provider.aws (close)&#45;&gt;[root] module.consul.aws_instance.server</title>
<path fill="none" stroke="#000000" d="M1026.3709,-503.7905C1026.7331,-484.894 1029.3159,-454.9493 1040.6983,-432 1045.9762,-421.3587 1054.0999,-411.4416 1062.3695,-403.0847"/>
<polygon fill="#000000" stroke="#000000" points="1064.7986,-405.6046 1069.6065,-396.1635 1059.9604,-400.5457 1064.7986,-405.6046"/>
</g>
<!-- [root] provisioner.file (close) -->
<g id="node31" class="node">
<title>[root] provisioner.file (close)</title>
<ellipse fill="none" stroke="#000000" cx="1163.6983" cy="-450" rx="113.9803" ry="18"/>
<text text-anchor="middle" x="1163.6983" y="-446.3" font-family="Times,serif" font-size="14.00" fill="#000000">[root] provisioner.file (close)</text>
</g>
<!-- [root] provisioner.file (close)&#45;&gt;[root] module.consul.aws_instance.server -->
<g id="edge35" class="edge">
<title>[root] provisioner.file (close)&#45;&gt;[root] module.consul.aws_instance.server</title>
<path fill="none" stroke="#000000" d="M1146.1477,-432.2022C1137.5934,-423.5275 1127.1522,-412.9391 1117.7755,-403.4304"/>
<polygon fill="#000000" stroke="#000000" points="1120.0537,-400.756 1110.5401,-396.0931 1115.0695,-405.671 1120.0537,-400.756"/>
</g>
<!-- [root] provisioner.remote&#45;exec (close) -->
<g id="node32" class="node">
<title>[root] provisioner.remote&#45;exec (close)</title>
<ellipse fill="none" stroke="#000000" cx="1333.6983" cy="-594" rx="145.6742" ry="18"/>
<text text-anchor="middle" x="1333.6983" y="-590.3" font-family="Times,serif" font-size="14.00" fill="#000000">[root] provisioner.remote&#45;exec (close)</text>
</g>
<!-- [root] provisioner.remote&#45;exec (close)&#45;&gt;[root] module.consul.aws_instance.server -->
<g id="edge36" class="edge">
<title>[root] provisioner.remote&#45;exec (close)&#45;&gt;[root] module.consul.aws_instance.server</title>
<path fill="none" stroke="#000000" d="M1333.8439,-575.8413C1333.0891,-542.5242 1326.5684,-471.4382 1286.6983,-432 1273.4932,-418.938 1237.8289,-407.4162 1200.624,-398.4064"/>
<polygon fill="#000000" stroke="#000000" points="1201.164,-394.9378 1190.6279,-396.0518 1199.5591,-401.7514 1201.164,-394.9378"/>
</g>
<!-- [root] root -->
<g id="node33" class="node">
<title>[root] root</title>
<ellipse fill="none" stroke="#000000" cx="1121.6983" cy="-666" rx="47.3916" ry="18"/>
<text text-anchor="middle" x="1121.6983" y="-662.3" font-family="Times,serif" font-size="14.00" fill="#000000">[root] root</text>
</g>
<!-- [root] root&#45;&gt;[root] meta.count&#45;boundary (EachMode fixup) -->
<g id="edge37" class="edge">
<title>[root] root&#45;&gt;[root] meta.count&#45;boundary (EachMode fixup)</title>
<path fill="none" stroke="#000000" d="M1083.1742,-655.4535C1043.1131,-644.4862 979.4814,-627.0661 930.1795,-613.569"/>
<polygon fill="#000000" stroke="#000000" points="931.0907,-610.1897 920.5214,-610.925 929.2423,-616.9413 931.0907,-610.1897"/>
</g>
<!-- [root] root&#45;&gt;[root] provider.aws (close) -->
<g id="edge38" class="edge">
<title>[root] root&#45;&gt;[root] provider.aws (close)</title>
<path fill="none" stroke="#000000" d="M1110.0494,-648.3428C1093.6155,-623.4324 1063.4935,-577.7737 1044.3154,-548.7038"/>
<polygon fill="#000000" stroke="#000000" points="1047.1705,-546.6757 1038.7422,-540.256 1041.3275,-550.5305 1047.1705,-546.6757"/>
</g>
<!-- [root] root&#45;&gt;[root] provisioner.file (close) -->
<g id="edge39" class="edge">
<title>[root] root&#45;&gt;[root] provisioner.file (close)</title>
<path fill="none" stroke="#000000" d="M1125.207,-647.9555C1132.5261,-610.3144 1149.4676,-523.1867 1158.2296,-478.1246"/>
<polygon fill="#000000" stroke="#000000" points="1161.697,-478.6293 1160.1701,-468.1451 1154.8257,-477.2932 1161.697,-478.6293"/>
</g>
<!-- [root] root&#45;&gt;[root] provisioner.remote&#45;exec (close) -->
<g id="edge40" class="edge">
<title>[root] root&#45;&gt;[root] provisioner.remote&#45;exec (close)</title>
<path fill="none" stroke="#000000" d="M1157.1823,-653.9488C1188.9944,-643.1447 1236.3142,-627.0739 1273.954,-614.2905"/>
<polygon fill="#000000" stroke="#000000" points="1275.4516,-617.4783 1283.7948,-610.9483 1273.2005,-610.8501 1275.4516,-617.4783"/>
</g>
</g>
</svg>
